<svg xmlns="http://www.w3.org/2000/svg" viewBox="0 0 192 192">
  <!-- Background circle -->
  <circle cx="96" cy="96" r="96" fill="#1a365d"/>
  <!-- Medical Cross -->
  <rect x="88" y="56" width="16" height="80" rx="8" fill="white"/>
  <rect x="64" y="80" width="64" height="16" rx="8" fill="white"/>
  <!-- Heart symbol -->
  <path d="M48 48 C48 32 64 32 64 48 C64 56 48 72 48 80 C48 88 56 96 64 96 C72 96 80 88 80 80 C80 72 64 56 64 48" fill="#10b981"/>
  <!-- AI brain indicator -->
  <circle cx="136" cy="40" r="6" fill="#6366f1"/>
  <circle cx="152" cy="32" r="4" fill="#8b5cf6"/>
  <circle cx="168" cy="40" r="6" fill="#6366f1"/>
  <line x1="142" y1="40" x2="152" y2="32" stroke="white" stroke-width="2"/>
  <line x1="158" y1="32" x2="168" y2="40" stroke="white" stroke-width="2"/>
</svg>
